<svg width="115" height="32" viewBox="0 0 115 32" fill="none" xmlns="http://www.w3.org/2000/svg">
<path d="M2.62 2.44L10.5 22.9L18.38 2.44H22.1L12.36 29H8.64L-1.1 2.44H2.62Z" />
<path d="M38.1113 2.44H27.6313V29H31.3513V17.62H38.1113C42.8313 17.62 45.8313 15.1 45.8313 10.03C45.8313 4.96 42.8313 2.44 38.1113 2.44ZM38.1113 14.08H31.3513V6H38.1113C40.7113 6 42.1113 7.24 42.1113 10.03C42.1113 12.82 40.7113 14.08 38.1113 14.08Z" />
<path d="M64.1835 2.44L56.2635 29H52.2235L60.1435 2.44H64.1835Z" />
<path d="M79.9958 2.44H69.5158V29H73.2358V6H79.9958V2.44Z" />
<path d="M95.8071 2.44H85.3271V29H89.0471V6H95.8071V2.44Z" />
<path d="M114.098 15.72C114.098 23.4 109.738 29.48 101.818 29.48C93.8984 29.48 89.5384 23.4 89.5384 15.72C89.5384 8.04 93.8984 2 101.818 2C109.738 2 114.098 8.04 114.098 15.72ZM93.2584 15.72C93.2584 21.48 96.4184 25.94 101.818 25.94C107.218 25.94 110.378 21.48 110.378 15.72C110.378 9.96 107.218 5.54 101.818 5.54C96.4184 5.54 93.2584 9.96 93.2584 15.72Z" />
</svg>